solid stl_item0
  facet normal 1 0 0
    outer loop
      vertex 63 -84 20
      vertex 63 -84 0
      vertex 63 16 0
    endloop
  endfacet
  facet normal 1 0 0
    outer loop
      vertex 63 -84 20
      vertex 63 16 0
      vertex 63 16 20
    endloop
  endfacet
  facet normal -1 0 0
    outer loop
      vertex -78 16 20
      vertex -78 16 0
      vertex -78 -84 0
    endloop
  endfacet
  facet normal -1 0 0
    outer loop
      vertex -78 16 20
      vertex -78 -84 0
      vertex -78 -84 20
    endloop
  endfacet
  facet normal 0 0 1
    outer loop
      vertex -74.502 -33.998 20
      vertex 52.503 -24.003 20
      vertex -68.503 -24.003 20
    endloop
  endfacet
  facet normal 0 0 -1
    outer loop
      vertex 58.503 -33.998 0
      vertex -74.502 -33.998 0
      vertex 52.503 -24.003 0
    endloop
  endfacet
  facet normal 0 0 -1
    outer loop
      vertex -68.503 -24.003 0
      vertex 52.503 -24.003 0
      vertex -74.502 -33.998 0
    endloop
  endfacet
  facet normal 0 0 -1
    outer loop
      vertex -74.502 -33.998 0
      vertex -78 16 0
      vertex -68.503 -24.003 0
    endloop
  endfacet
  facet normal 0 0 -1
    outer loop
      vertex -68.503 16 0
      vertex -68.503 -24.003 0
      vertex -78 16 0
    endloop
  endfacet
  facet normal 0 0 -1
    outer loop
      vertex -74.502 -84 0
      vertex -78 -84 0
      vertex -74.502 -33.998 0
    endloop
  endfacet
  facet normal 0 0 -1
    outer loop
      vertex -78 16 0
      vertex -74.502 -33.998 0
      vertex -78 -84 0
    endloop
  endfacet
  facet normal 0 0 -1
    outer loop
      vertex 63 16 0
      vertex 52.503 -24.003 0
      vertex 52.503 16 0
    endloop
  endfacet
  facet normal 0 0 1
    outer loop
      vertex -68.503 16 20
      vertex -78 16 20
      vertex -68.503 -24.003 20
    endloop
  endfacet
  facet normal 0 0 1
    outer loop
      vertex -74.502 -33.998 20
      vertex -68.503 -24.003 20
      vertex -78 16 20
    endloop
  endfacet
  facet normal 0 0 1
    outer loop
      vertex -78 16 20
      vertex -78 -84 20
      vertex -74.502 -33.998 20
    endloop
  endfacet
  facet normal 0 0 1
    outer loop
      vertex -74.502 -84 20
      vertex -74.502 -33.998 20
      vertex -78 -84 20
    endloop
  endfacet
  facet normal 0 0 1
    outer loop
      vertex 58.503 -33.998 20
      vertex 63 16 20
      vertex 52.503 -24.003 20
    endloop
  endfacet
  facet normal 0 0 1
    outer loop
      vertex -74.502 -33.998 20
      vertex 58.503 -33.998 20
      vertex 52.503 -24.003 20
    endloop
  endfacet
  facet normal 0 0 1
    outer loop
      vertex 52.503 16 20
      vertex 52.503 -24.003 20
      vertex 63 16 20
    endloop
  endfacet
  facet normal 0 0 1
    outer loop
      vertex 58.503 -84 20
      vertex 63 -84 20
      vertex 58.503 -33.998 20
    endloop
  endfacet
  facet normal 0 0 1
    outer loop
      vertex 63 16 20
      vertex 58.503 -33.998 20
      vertex 63 -84 20
    endloop
  endfacet
  facet normal 0 0 -1
    outer loop
      vertex 63 -84 0
      vertex 58.503 -84 0
      vertex 58.503 -33.998 0
    endloop
  endfacet
  facet normal 0 0 -1
    outer loop
      vertex 58.503 -33.998 0
      vertex 52.503 -24.003 0
      vertex 63 16 0
    endloop
  endfacet
  facet normal 0 0 -1
    outer loop
      vertex 63 -84 0
      vertex 58.503 -33.998 0
      vertex 63 16 0
    endloop
  endfacet
  facet normal 0 -1 0
    outer loop
      vertex -78 -84 20
      vertex -78 -84 0
      vertex -74.502 -84 0
    endloop
  endfacet
  facet normal 0 -1 0
    outer loop
      vertex -78 -84 20
      vertex -74.502 -84 0
      vertex -74.502 -84 20
    endloop
  endfacet
  facet normal 0 -1 0
    outer loop
      vertex 58.503 -84 20
      vertex 58.503 -84 0
      vertex 63 -84 0
    endloop
  endfacet
  facet normal 0 -1 0
    outer loop
      vertex 58.503 -84 20
      vertex 63 -84 0
      vertex 63 -84 20
    endloop
  endfacet
  facet normal 0 1 0
    outer loop
      vertex -78 16 0
      vertex -68.503 16 20
      vertex -68.503 16 0
    endloop
  endfacet
  facet normal 0 1 0
    outer loop
      vertex -68.503 16 20
      vertex -78 16 0
      vertex -78 16 20
    endloop
  endfacet
  facet normal 0 1 0
    outer loop
      vertex 52.503 16 20
      vertex 63 16 0
      vertex 52.503 16 0
    endloop
  endfacet
  facet normal -1 0 0
    outer loop
      vertex 52.503 -24.003 0
      vertex 52.503 -24.003 20
      vertex 52.503 16 20
    endloop
  endfacet
  facet normal -1 0 0
    outer loop
      vertex 52.503 -24.003 0
      vertex 52.503 16 20
      vertex 52.503 16 0
    endloop
  endfacet
  facet normal 0 1 0
    outer loop
      vertex 63 16 20
      vertex 63 16 0
      vertex 52.503 16 20
    endloop
  endfacet
  facet normal 0 -1 0
    outer loop
      vertex 58.503 -33.998 0
      vertex 58.503 -33.998 20
      vertex -74.502 -33.998 20
    endloop
  endfacet
  facet normal 0 1 0
    outer loop
      vertex 52.503 -24.003 20
      vertex 52.503 -24.003 0
      vertex -68.503 -24.003 0
    endloop
  endfacet
  facet normal 0 1 0
    outer loop
      vertex 52.503 -24.003 20
      vertex -68.503 -24.003 0
      vertex -68.503 -24.003 20
    endloop
  endfacet
  facet normal -1 0 0
    outer loop
      vertex 58.503 -84 20
      vertex 58.503 -33.998 20
      vertex 58.503 -33.998 0
    endloop
  endfacet
  facet normal -1 0 0
    outer loop
      vertex 58.503 -84 20
      vertex 58.503 -33.998 0
      vertex 58.503 -84 0
    endloop
  endfacet
  facet normal 1 0 0
    outer loop
      vertex -68.503 16 20
      vertex -68.503 -24.003 20
      vertex -68.503 -24.003 0
    endloop
  endfacet
  facet normal 1 0 0
    outer loop
      vertex -68.503 16 20
      vertex -68.503 -24.003 0
      vertex -68.503 16 0
    endloop
  endfacet
  facet normal 0 -1 0
    outer loop
      vertex 58.503 -33.998 0
      vertex -74.502 -33.998 20
      vertex -74.502 -33.998 0
    endloop
  endfacet
  facet normal 1 0 0
    outer loop
      vertex -74.502 -33.998 0
      vertex -74.502 -33.998 20
      vertex -74.502 -84 20
    endloop
  endfacet
  facet normal 1 0 0
    outer loop
      vertex -74.502 -33.998 0
      vertex -74.502 -84 20
      vertex -74.502 -84 0
    endloop
  endfacet
endsolid stl_item0
